HIERARCHY
ROOT Hips
{
	OFFSET 0.000000 0.000000 0.000000
	CHANNELS 6 Xposition Yposition Zposition Zrotation Yrotation Xrotation 
	JOINT LHipJoint
	{
		OFFSET 0.000000 0.000000 0.000000
		CHANNELS 3 Zrotation Yrotation Xrotation
		JOINT LeftUpLeg
		{
			OFFSET 1.363060 -1.794630 0.839290
			CHANNELS 3 Zrotation Yrotation Xrotation
			JOINT LeftLeg
			{
				OFFSET 2.448110 -6.726130 0.000000
				CHANNELS 3 Zrotation Yrotation Xrotation
				JOINT LeftFoot
				{
					OFFSET 2.562200 -7.039590 0.000000
					CHANNELS 3 Zrotation Yrotation Xrotation
					JOINT LeftToeBase
					{
						OFFSET 0.157640 -0.433110 2.322550
						CHANNELS 3 Zrotation Yrotation Xrotation
						End Site
						{
							OFFSET 0.000000 0.000000 0.000000
						}
					}
				}
			}
		}
	}
	JOINT RHipJoint
	{
		OFFSET 0.000000 0.000000 0.000000
		CHANNELS 3 Zrotation Yrotation Xrotation
		JOINT RightUpLeg
		{
			OFFSET -1.305520 -1.794630 0.839290
			CHANNELS 3 Zrotation Yrotation Xrotation
			JOINT RightLeg
			{
				OFFSET -2.542530 -6.985550 0.000000
				CHANNELS 3 Zrotation Yrotation Xrotation
				JOINT RightFoot
				{
					OFFSET -2.568260 -7.056230 0.000000
					CHANNELS 3 Zrotation Yrotation Xrotation
					JOINT RightToeBase
					{
						OFFSET -0.164730 -0.452590 2.363150
						CHANNELS 3 Zrotation Yrotation Xrotation
						End Site
						{
							OFFSET 0.000000 0.000000 0.000000
						}
					}
				}
			}
		}
	}
	JOINT LowerBack
	{
		OFFSET 0.000000 0.000000 0.000000
		CHANNELS 3 Zrotation Yrotation Xrotation
		JOINT Spine
		{
			OFFSET 0.028270 2.035590 -0.193380
			CHANNELS 3 Zrotation Yrotation Xrotation
			JOINT Spine1
			{
				OFFSET 0.056720 2.048850 -0.042750
				CHANNELS 3 Zrotation Yrotation Xrotation
				JOINT Neck
				{
					OFFSET 0.000000 0.000000 0.000000
					CHANNELS 3 Zrotation Yrotation Xrotation
					JOINT Neck1
					{
						OFFSET -0.054170 1.746240 0.172020
						CHANNELS 3 Zrotation Yrotation Xrotation
						JOINT Head
						{
							OFFSET 0.104070 1.761360 -0.123970
							CHANNELS 3 Zrotation Yrotation Xrotation
							End Site
							{
								OFFSET 0.000000 0.000000 0.000000
							}
						}
					}
				}
				JOINT LeftShoulder
				{
					OFFSET 0.000000 0.000000 0.000000
					CHANNELS 3 Zrotation Yrotation Xrotation
					JOINT LeftArm
					{
						OFFSET 3.362410 1.200890 -0.311210
						CHANNELS 3 Zrotation Yrotation Xrotation
						JOINT LeftForeArm
						{
							OFFSET 4.983000 -0.000000 -0.000000
							CHANNELS 3 Zrotation Yrotation Xrotation
							JOINT LeftHand
							{
								OFFSET 3.483560 -0.000000 -0.000000
								CHANNELS 3 Zrotation Yrotation Xrotation
								JOINT LeftFingerBase
								{
									OFFSET 0.000000 0.000000 0.000000
									CHANNELS 3 Zrotation Yrotation Xrotation
									JOINT LeftHandIndex1
									{
										OFFSET 0.715260 -0.000000 -0.000000
										CHANNELS 3 Zrotation Yrotation Xrotation
										End Site
										{
											OFFSET 0.000000 0.000000 0.000000
										}
									}
								}
								JOINT LThumb
								{
									OFFSET 0.000000 0.000000 0.000000
									CHANNELS 3 Zrotation Yrotation Xrotation
									End Site
									{
										OFFSET 0.000000 0.000000 0.000000
									}
								}
							}
						}
					}
				}
				JOINT RightShoulder
				{
					OFFSET 0.000000 0.000000 0.000000
					CHANNELS 3 Zrotation Yrotation Xrotation
					JOINT RightArm
					{
						OFFSET -3.136600 1.374050 -0.404650
						CHANNELS 3 Zrotation Yrotation Xrotation
						JOINT RightForeArm
						{
							OFFSET -5.241900 -0.000000 -0.000000
							CHANNELS 3 Zrotation Yrotation Xrotation
							JOINT RightHand
							{
								OFFSET -3.444170 -0.000000 -0.000000
								CHANNELS 3 Zrotation Yrotation Xrotation
								JOINT RightFingerBase
								{
									OFFSET 0.000000 0.000000 0.000000
									CHANNELS 3 Zrotation Yrotation Xrotation
									JOINT RightHandIndex1
									{
										OFFSET -0.622530 -0.000000 -0.000000
										CHANNELS 3 Zrotation Yrotation Xrotation
										End Site
										{
											OFFSET 0.000000 0.000000 0.000000
										}
									}
								}
								JOINT RThumb
								{
									OFFSET 0.000000 0.000000 0.000000
									CHANNELS 3 Zrotation Yrotation Xrotation
									End Site
									{
										OFFSET 0.000000 0.000000 0.000000
									}
								}
							}
						}
					}
				}
			}
		}
	}
}
MOTION
Frames: 8
Frame Time: 0.008333
10.192625 17.994801 24.376432 -177.314733 -0.903863 -179.152937 1.322014 4.355190 2.222877 -17.387701 -24.571228 0.218565 -2.774183 6.803127 20.283114 -3.448319 12.902928 -9.251837 0.473400 -4.412600 -12.240500 -5.613305 -4.465299 0.949925 31.470091 17.406203 8.985880 4.030681 -2.036916 10.437707 6.411632 -27.112112 -14.978548 -0.048400 -1.420300 3.906100 4.800805 2.049487 5.883624 2.518172 3.067425 7.397711 -6.034921 1.234159 -13.687512 -12.807916 -4.877926 -13.873340 19.144297 -7.406094 9.748565 3.977100 -3.271000 3.773200 -0.457710 -10.300887 2.131659 -77.479221 15.581866 -13.619924 26.167102 -26.383578 -5.977892 1.813232 0.444438 8.709175 3.045094 -31.307681 -0.707700 -7.125000 0.000000 0.000000 -17.059500 -0.891400 18.141600 -0.271740 9.432815 2.611011 81.092124 -16.472995 -3.544741 -22.811750 25.070134 -5.920279 0.470310 -1.080367 29.327962 -19.557308 -53.413962 16.489000 7.125000 0.000000 0.000000 59.856900 -78.870100 -49.634700 
10.189848 17.995842 24.376316 -177.459187 -0.760937 -179.097345 1.293925 4.356443 2.223668 -17.547627 -24.638687 0.336644 -2.815058 6.741213 20.108465 -3.527225 13.144436 -9.404039 0.493000 -4.502000 -12.493400 -5.599676 -4.453450 0.955444 31.308302 17.635655 8.803744 3.993198 -2.184374 10.805938 6.332840 -26.901496 -15.363676 -0.060900 -1.592000 4.379300 4.723407 2.014910 5.846012 2.413436 3.011918 7.389094 -5.969882 1.216032 -13.683851 -12.881043 -4.883844 -13.982373 19.245933 -7.416544 9.894936 4.014100 -3.261600 3.829300 -0.449723 -10.292706 2.127229 -77.762944 16.171837 -13.273319 26.392801 -26.580489 -6.091245 1.808693 0.466854 8.167096 3.206221 -31.552826 -0.799700 -7.125000 0.000000 0.000000 -16.974300 -1.147700 18.118900 -0.258741 9.427904 2.622990 81.076078 -16.777138 -3.157566 -22.696690 24.913169 -5.894204 0.461766 -1.076396 29.069950 -20.233976 -53.896614 17.138900 7.125000 0.000000 0.000000 61.907200 -79.288800 -51.919200 
10.185913 17.997347 24.378978 -177.585321 -0.604930 -179.005967 1.277975 4.339590 2.204116 -17.690013 -24.656888 0.342250 -2.834022 6.723949 20.049642 -3.571120 13.293002 -9.544722 0.477600 -4.432100 -12.295600 -5.581277 -4.440909 0.954529 31.122292 17.867920 8.659248 3.974421 -2.262582 10.986829 6.287790 -26.764819 -15.548016 -0.082500 -1.852900 5.099200 4.626988 1.998967 5.868124 2.385877 2.981548 7.258788 -5.915353 1.207843 -13.696703 -12.931761 -4.842172 -13.978428 19.261303 -7.366094 9.958175 4.028000 -3.233200 3.839400 -0.460726 -10.283541 2.128023 -78.012633 16.612038 -13.077231 26.371472 -26.513726 -6.087845 1.809263 0.484442 8.073954 3.569668 -31.642619 -0.997800 -7.125000 0.000000 0.000000 -16.777400 -1.286100 17.929800 -0.242098 9.422695 2.640893 81.109875 -17.139628 -2.834990 -22.625713 24.801467 -5.869690 0.456328 -1.081298 29.196785 -20.479742 -53.929217 17.348100 7.125000 0.000000 0.000000 61.939600 -79.396300 -52.055800 
10.184062 17.996768 24.382565 -177.586775 -0.483132 -178.988785 1.283985 4.337701 2.199533 -17.714646 -24.661239 0.370875 -2.846042 6.705377 20.002522 -3.589754 13.353929 -9.627153 0.446100 -4.285400 -11.881100 -5.567303 -4.433048 0.951804 31.113166 18.018780 8.601580 3.961513 -2.319200 11.110834 6.302361 -26.812910 -15.588101 -0.088600 -1.919300 5.282700 4.575937 1.970135 5.953096 2.503057 2.943417 7.180809 -5.908279 1.188422 -13.748887 -12.947841 -4.793117 -13.979438 19.241687 -7.302438 9.997417 4.028300 -3.200300 3.839000 -0.485110 -10.266629 2.123744 -78.314859 17.067770 -12.878754 26.325196 -26.439203 -6.100752 1.820690 0.499217 8.040632 3.810224 -32.167784 -1.138900 -7.125000 0.000000 0.000000 -16.662500 -1.829700 17.953200 -0.242031 9.416306 2.659630 81.213410 -17.595830 -2.467156 -22.620457 24.762287 -5.863285 0.448929 -1.090666 29.545566 -20.625016 -53.722642 17.424800 7.125000 0.000000 0.000000 60.778300 -79.393100 -50.988700 
10.183252 17.998504 24.388352 -177.523468 -0.450646 -178.934388 1.285032 4.332968 2.184598 -17.624636 -24.747038 0.347889 -2.854050 6.697319 19.976577 -3.580243 13.336441 -9.759836 0.429700 -4.206700 -11.658900 -5.558990 -4.418579 0.940515 31.161198 18.090887 8.506347 3.957072 -2.352454 11.167701 6.317055 -26.869640 -15.602000 -0.086700 -1.899200 5.227300 4.609625 1.939577 6.058841 2.564943 2.916853 7.055041 -5.929983 1.162906 -13.809186 -12.716951 -4.788154 -14.040454 19.009214 -7.285785 10.048938 3.935200 -3.189100 3.839100 -0.512971 -10.235838 2.123626 -78.552427 17.362597 -12.788994 26.209142 -26.323534 -6.104866 1.844460 0.501375 8.096741 3.699367 -33.049789 -1.092000 -7.125000 0.000000 0.000000 -16.755300 -2.669100 18.303500 -0.238981 9.423229 2.685702 81.459350 -18.082969 -2.185853 -22.616742 24.736642 -5.871156 0.448480 -1.092313 29.859505 -20.315575 -53.917158 17.214200 7.125000 0.000000 0.000000 61.914300 -79.327400 -51.964000 
10.180706 18.003249 24.393791 -177.509374 -0.412041 -178.821756 1.290739 4.313872 2.151402 -17.586174 -24.811074 0.265517 -2.858648 6.699593 19.967836 -3.596097 13.385955 -9.826147 0.435100 -4.232600 -11.732100 -5.538971 -4.404525 0.930044 31.120724 18.185021 8.394717 3.958532 -2.362394 11.157589 6.337779 -26.919025 -15.530390 -0.078100 -1.802700 4.960800 4.556172 1.915664 6.143606 2.705225 2.885012 6.851603 -5.919855 1.141144 -13.851263 -12.524599 -4.765137 -14.075717 18.678223 -7.231194 10.092877 3.822600 -3.163900 3.829700 -0.560703 -10.206232 2.121079 -78.925741 17.619007 -12.742483 26.102096 -26.204545 -6.088676 1.857961 0.501544 8.230218 3.669182 -33.470391 -1.080800 -7.125000 0.000000 0.000000 -16.788800 -3.074200 18.458500 -0.238096 9.434845 2.718205 81.630116 -18.472059 -1.824699 -22.525761 24.617933 -5.862343 0.456195 -1.088697 30.122646 -19.452775 -54.604306 16.648200 7.125000 0.000000 0.000000 65.774900 -79.163000 -55.364200 
10.179433 18.004869 24.396105 -177.492665 -0.337590 -178.790731 1.312872 4.303633 2.139237 -17.581521 -24.716414 0.197655 -2.856628 6.704811 19.976273 -3.646247 13.514727 -9.754363 0.511500 -4.584400 -12.726800 -5.521713 -4.401430 0.929034 31.133476 18.259785 8.416716 3.962131 -2.352186 11.121519 6.347830 -26.940072 -15.463155 -0.068500 -1.688600 4.645900 4.461937 1.869584 6.229412 2.922552 2.817608 6.749938 -5.902950 1.109612 -13.908927 -12.539593 -4.694820 -14.142735 18.568485 -7.119963 10.179410 3.800100 -3.104700 3.844300 -0.611037 -10.184814 2.108010 -79.425649 17.860077 -12.787548 25.972617 -26.047954 -6.038523 1.860805 0.505066 8.710217 4.090895 -33.410278 -1.320200 -7.125000 0.000000 0.000000 -16.560300 -3.082700 18.187100 -0.242670 9.439985 2.742724 81.740276 -18.810233 -1.141771 -22.375252 24.417652 -5.818942 0.459641 -1.090705 30.310805 -19.047530 -54.912277 16.377100 7.125000 0.000000 0.000000 67.457200 -79.070600 -56.838300 
10.179433 18.002786 24.399693 -177.443614 -0.277307 -178.798196 1.324758 4.307135 2.138154 -17.545432 -24.699035 0.200431 -2.858255 6.701881 19.966994 -3.699262 13.652354 -9.722219 0.578200 -4.869300 -13.536000 -5.517106 -4.397989 0.926014 31.186781 18.317352 8.429434 3.962588 -2.353700 11.116334 6.353763 -26.956853 -15.413704 -0.065500 -1.651800 4.544400 4.469743 1.832078 6.345973 3.015889 2.778526 6.705052 -5.922573 1.083973 -13.986899 -12.429708 -4.637176 -14.179032 18.477018 -7.038007 10.181003 3.764700 -3.063500 3.832900 -0.646966 -10.164063 2.092760 -79.869098 18.026712 -12.818067 25.807814 -25.868933 -5.989285 1.865985 0.511922 9.325729 4.662401 -33.605901 -1.655200 -7.125000 0.000000 0.000000 -16.260000 -3.363400 17.905300 -0.238280 9.440544 2.759585 82.000478 -19.232446 -0.426093 -22.256081 24.244815 -5.769124 0.462144 -1.098459 30.517179 -18.945467 -54.654182 16.247700 7.125000 0.000000 0.000000 66.159600 -78.976500 -55.530700 
